<?xml version="1.0" standalone="no"?><!DOCTYPE svg PUBLIC "-//W3C//DTD SVG 1.1//EN" "http://www.w3.org/Graphics/SVG/1.1/DTD/svg11.dtd"><svg t="1711723880855" class="icon" viewBox="0 0 1024 1024" version="1.1" xmlns="http://www.w3.org/2000/svg" p-id="6582" xmlns:xlink="http://www.w3.org/1999/xlink" width="32" height="32"><path d="M146.285714 256c64.347429 0 117.613714-47.798857 126.537143-109.714286H987.428571a18.285714 18.285714 0 1 0 0-36.571428H272.822857C263.899429 47.798857 210.633143 0 146.285714 0 75.702857 0 18.285714 57.435429 18.285714 128s57.417143 128 128 128zM146.285714 36.571429c50.413714 0 91.428571 41.014857 91.428572 91.428571s-41.014857 91.428571-91.428572 91.428571-91.428571-41.014857-91.428571-91.428571 41.014857-91.428571 91.428571-91.428571zM877.714286 768c-64.347429 0-117.613714 47.798857-126.537143 109.714286H36.571429a18.285714 18.285714 0 1 0 0 36.571428h714.605714c8.923429 61.915429 62.189714 109.714286 126.537143 109.714286 70.564571 0 128-57.435429 128-128s-57.435429-128-128-128z m0 219.428571c-50.413714 0-91.428571-41.014857-91.428572-91.428571s41.014857-91.428571 91.428572-91.428571 91.428571 41.014857 91.428571 91.428571-41.014857 91.428571-91.428571 91.428571zM987.428571 493.714286H646.729143c-7.241143-65.865143-63.177143-117.284571-130.944-117.284572-67.766857 0-123.702857 51.437714-130.944 117.284572H36.571429a18.285714 18.285714 0 1 0 0 36.571428h349.421714c10.550857 62.171429 64.658286 109.714286 129.792 109.714286s119.222857-47.542857 129.773714-109.714286H987.428571a18.285714 18.285714 0 1 0 0-36.571428z m-471.643428 109.714285C463.286857 603.428571 420.571429 560.713143 420.571429 508.214857s42.715429-95.213714 95.213714-95.213714 95.213714 42.715429 95.213714 95.213714S568.283429 603.428571 515.785143 603.428571z" p-id="6583" fill="#c792ea"></path></svg>