<?xml version="1.0" standalone="no"?><!DOCTYPE svg PUBLIC "-//W3C//DTD SVG 1.1//EN" "http://www.w3.org/Graphics/SVG/1.1/DTD/svg11.dtd"><svg t="1711723961334" class="icon" viewBox="0 0 1024 1024" version="1.1" xmlns="http://www.w3.org/2000/svg" p-id="18758" xmlns:xlink="http://www.w3.org/1999/xlink" width="32" height="32"><path d="M922.112 657.773714l-67.510857-83.236571V410.258286c0-90.112-33.353143-173.860571-93.842286-235.812572a305.371429 305.371429 0 0 0-100.059428-68.534857C638.829714 49.444571 581.412571 11.117714 516.827429 9.289143L511.926857 9.216c-66.486857 0-126.171429 38.838857-148.260571 95.524571a324.388571 324.388571 0 0 0-100.352 69.632c-60.562286 62.025143-93.915429 145.773714-93.915429 235.885715v164.278857l-67.510857 83.236571a90.038857 90.038857 0 0 0-25.161143 62.098286v59.830857c0 50.688 45.714286 91.940571 101.888 91.940572h666.770286c56.173714 0 101.888-41.252571 101.888-91.940572v-59.830857c0-22.966857-9.142857-45.494857-25.161143-62.098286z m-56.246857 121.929143c0 9.289143-9.216 16.822857-20.553143 16.822857H178.614857c-11.337143 0-20.553143-7.533714-20.553143-16.822857v-59.830857c0-4.754286 1.828571-9.581714 4.827429-12.507429l87.771428-107.812571V410.258286c0-71.460571 25.892571-137.362286 73.069715-185.636572 21.284571-21.869714 46.665143-39.497143 75.410285-52.297143 19.382857-8.704 33.865143-23.259429 40.813715-41.179428 10.825143-28.013714 39.789714-46.884571 71.972571-46.884572h0.146286c32.182857 0 61.147429 18.870857 71.972571 46.884572 6.875429 17.846857 21.357714 32.475429 40.813715 41.106286 28.745143 12.873143 54.125714 30.500571 75.410285 52.370285 47.104 48.201143 72.996571 114.102857 72.996572 185.563429v189.293714l84.918857 104.594286 2.925714 3.218286c2.998857 2.925714 4.827429 7.753143 4.827429 12.507428v59.904zM578.56 925.769143a102.546286 102.546286 0 0 1-55.881143 21.357714c-3.510857 0.365714-7.094857 0.219429-10.678857 0.219429-3.584 0-7.168 0.073143-10.678857-0.219429a103.131429 103.131429 0 0 1-55.881143-21.357714 88.137143 88.137143 0 0 1-23.990857-30.354286l-77.312 0.073143c7.899429 30.281143 25.6 57.856 51.565714 78.994286 28.452571 23.332571 64.950857 36.644571 103.424 39.204571 4.242286 0.292571 8.484571 1.097143 12.873143 1.097143 4.388571 0 8.557714-0.804571 12.873143-1.097143a181.540571 181.540571 0 0 0 103.424-39.204571c25.965714-21.138286 43.666286-48.713143 51.565714-78.994286l-77.312-0.073143a86.454857 86.454857 0 0 1-23.990857 30.354286z" p-id="18759" fill="#ff5370"></path></svg>