<?xml version="1.0" standalone="no"?><!DOCTYPE svg PUBLIC "-//W3C//DTD SVG 1.1//EN" "http://www.w3.org/Graphics/SVG/1.1/DTD/svg11.dtd"><svg t="1709649255299" class="icon" viewBox="0 0 1024 1024" version="1.1" xmlns="http://www.w3.org/2000/svg" p-id="4905" xmlns:xlink="http://www.w3.org/1999/xlink" width="32" height="32"><path d="M598.016 598.016l0 84.010667-299.989333 0 0-84.010667 299.989333 0zM809.984 809.984l0-468.010667-596.010667 0 0 468.010667 596.010667 0zM809.984 128q34.005333 0 59.989333 25.984t25.984 59.989333l0 596.010667q0 34.005333-25.984 59.989333t-59.989333 25.984l-596.010667 0q-36.010667 0-61.013333-25.984t-25.002667-59.989333l0-596.010667q0-34.005333 25.002667-59.989333t61.013333-25.984l41.984 0 0-86.016 86.016 0 0 86.016 340.010667 0 0-86.016 86.016 0 0 86.016 41.984 0zM726.016 425.984l0 86.016-427.989333 0 0-86.016 427.989333 0z" fill="#ffffff" p-id="4906"></path></svg>