<?xml version="1.0" standalone="no"?><!DOCTYPE svg PUBLIC "-//W3C//DTD SVG 1.1//EN" "http://www.w3.org/Graphics/SVG/1.1/DTD/svg11.dtd"><svg t="1713188594783" class="icon" viewBox="0 0 1029 1024" version="1.1" xmlns="http://www.w3.org/2000/svg" p-id="14504" xmlns:xlink="http://www.w3.org/1999/xlink" width="32.15625" height="32"><path d="M448 64L192 320h256z" fill="#9AA7B0" fill-opacity=".8" p-id="14505"></path><path d="M512 960v-44.992c-40.512-6.208-71.488-25.92-92.8-59.072-32-49.728-39.36-124.032-22.528-184.704a159.36 159.36 0 0 1 152.576-126.08v-13.696a133.184 133.184 0 0 1 34.56-99.136c24.576-26.88 56.768-47.552 93.248-48.32 27.968-4.736 58.624-2.112 87.04-2.112a351.36 351.36 0 0 1 67.904 7.04V64H512v320H192v576h320z" fill="#9AA7B0" fill-opacity=".8" p-id="14506"></path><path d="M735.424 440.192c-22.4 0-44.864 1.92-67.008 5.696-59.392 10.368-70.208 32.064-70.208 72.128v52.928h140.352v17.6H545.536a87.424 87.424 0 0 0-87.68 70.4 256.704 256.704 0 0 0 0 141.056c3.84 38.784 35.712 68.8 74.624 70.4h48.256v-63.424a88.704 88.704 0 0 1 87.68-86.208h140.16a70.336 70.336 0 0 0 70.144-70.592V518.016a77.888 77.888 0 0 0-70.144-72.128 442.432 442.432 0 0 0-73.152-5.696z m-75.904 42.56a26.432 26.432 0 1 1 0.256 52.928 26.432 26.432 0 0 1-0.256-52.928z" fill="#40A0CF" fill-opacity=".9" p-id="14507"></path><path d="M896.256 588.544v61.632a89.536 89.536 0 0 1-87.68 88.064h-140.16a71.168 71.168 0 0 0-70.208 70.528v132.16a81.28 81.28 0 0 0 70.208 70.528c45.632 14.08 94.464 14.08 140.16 0a80.064 80.064 0 0 0 70.144-70.528v-52.928h-140.16V870.4h210.304c40.832 0 56-28.16 70.208-70.4a235.712 235.712 0 0 0 0-141.056 74.88 74.88 0 0 0-70.208-70.4h-52.608z m-78.848 334.72a26.432 26.432 0 1 1 0.192 52.928 26.432 26.432 0 0 1-0.192-52.928z" fill="#FFC900" fill-opacity=".9" p-id="14508"></path></svg>