<?xml version="1.0" standalone="no"?><!DOCTYPE svg PUBLIC "-//W3C//DTD SVG 1.1//EN" "http://www.w3.org/Graphics/SVG/1.1/DTD/svg11.dtd"><svg t="1711724380181" class="icon" viewBox="0 0 1024 1024" version="1.1" xmlns="http://www.w3.org/2000/svg" p-id="20744" xmlns:xlink="http://www.w3.org/1999/xlink" width="32" height="32"><path d="M810.666667 896c-4.266667 0-12.8 0-17.066667-4.266667-21.333333-8.533333-29.866667-34.133333-21.333333-55.466666 51.2-102.4 76.8-209.066667 76.8-324.266667 0-115.2-25.6-221.866667-76.8-324.266667-8.533333-21.333333 0-46.933333 21.333333-55.466666 21.333333-8.533333 46.933333 0 55.466667 21.333333 55.466667 110.933333 85.333333 234.666667 85.333333 358.4 0 128-29.866667 247.466667-85.333333 358.4-8.533333 17.066667-21.333333 25.6-38.4 25.6zM209.066667 896c-17.066667 0-29.866667-8.533333-38.4-25.6C115.2 759.466667 85.333333 640 85.333333 512s29.866667-247.466667 85.333334-358.4c8.533333-21.333333 34.133333-29.866667 55.466666-21.333333 21.333333 8.533333 29.866667 38.4 21.333334 55.466666C196.266667 290.133333 170.666667 396.8 170.666667 512c0 115.2 25.6 221.866667 76.8 324.266667 8.533333 21.333333 0 46.933333-21.333334 55.466666-4.266667 4.266667-12.8 4.266667-17.066666 4.266667zM640 725.333333h-51.2c-38.4 0-72.533333-25.6-81.066667-64l-12.8-42.666666-51.2 64c-25.6 29.866667-59.733333 42.666667-98.133333 42.666666-25.6 0-42.666667-17.066667-42.666667-42.666666s17.066667-42.666667 42.666667-42.666667c17.066667 0 25.6-4.266667 34.133333-12.8l89.6-102.4-34.133333-98.133333H384c-25.6 0-42.666667-17.066667-42.666667-42.666667s17.066667-42.666667 42.666667-42.666667h51.2c38.4 0 72.533333 25.6 81.066667 64l12.8 42.666667L580.266667 384c25.6-29.866667 59.733333-42.666667 98.133333-42.666667 25.6 0 42.666667 17.066667 42.666667 42.666667s-17.066667 42.666667-42.666667 42.666667h-4.266667c-12.8 0-25.6 4.266667-34.133333 12.8l-89.6 102.4 25.6 98.133333H640c25.6 0 42.666667 17.066667 42.666667 42.666667s-17.066667 42.666667-42.666667 42.666666z" fill="#eeffe3" p-id="20745"></path></svg>